# xmcd
#
# Track frame offsets: 
#        150
#        9492
#        31890
#        46084
#        69428
#        81474
#        108096
#        133043
#        144832
#        157790
#        170239
#        184365
#        208760
#        230578
#        242583
#        256610
#        275213
#        290854
#
# Disc length: 4143 seconds
#
# Revision: 3
# Processed by: cddbd v1.5.1PL0 Copyright (c) Steve Scherf et al.
# Submitted via: ExactAudioCopy v0.95a5
#
DISCID=01102d12
DTITLE=Various Artist - The Very Best Of Smooth Jazz CD1
DYEAR=2003
DGENRE=Easy Listening
TTITLE0=Bill Withers/Ain't No Sunshine
TTITLE1=Grover Washington Jr. and Bill Withers/Just The Two Of Us
TTITLE2=Denzal Sinclaire/Blackbird
TTITLE3=Astrud Gilberto and Stan Getz/The Girl From Ipanema
TTITLE4=The Temptations/My Girl
TTITLE5=Lionel Ritchie/Love Will Find A Way
TTITLE6=Sting and Guy Barker/You Don't Know What Love Is
TTITLE7=Tamba Trio/Mas Que Nada
TTITLE8=Nina Simone/Feelin' Good
TTITLE9=Dinah Washington/Mad About The Boy
TTITLE10=Hill St. Soul/Until You Come Back To Me
TTITLE11=John Scofield/After The Fact
TTITLE12=Larry Carlton/Minute By Minute
TTITLE13=Sarah Vaughan/Make Yourself Comfortable
TTITLE14=Dorothy Dandridge/Smooth Operator
TTITLE15=Freddy Ravel/Sunny Side Up
TTITLE16=Richard Elliot/Crush
TTITLE17=Christian McBride/Aja
EXTD=YEAR: 2003
EXTT0=
EXTT1=
EXTT2=
EXTT3=
EXTT4=
EXTT5=
EXTT6=
EXTT7=
EXTT8=
EXTT9=
EXTT10=
EXTT11=
EXTT12=
EXTT13=
EXTT14=
EXTT15=
EXTT16=
EXTT17=
PLAYORDER=
